<svg width="61" height="60" viewBox="0 0 61 60" fill="none" xmlns="http://www.w3.org/2000/svg">
<path d="M30.1852 0C13.7019 0 0.324097 13.44 0.324097 30C0.324097 46.56 13.7019 60 30.1852 60C46.6685 60 60.0463 46.56 60.0463 30C60.0463 13.44 46.6685 0 30.1852 0ZM30.1852 9C35.1422 9 39.1435 13.02 39.1435 18C39.1435 22.98 35.1422 27 30.1852 27C25.2283 27 21.2269 22.98 21.2269 18C21.2269 13.02 25.2283 9 30.1852 9ZM30.1852 51.6C22.7199 51.6 16.1206 47.76 12.2685 41.94C12.3581 35.97 24.213 32.7 30.1852 32.7C36.1276 32.7 48.0123 35.97 48.1019 41.94C44.2498 47.76 37.6505 51.6 30.1852 51.6Z" fill="black"/>
</svg>
