<svg width="61" height="60" viewBox="0 0 61 60" fill="none" xmlns="http://www.w3.org/2000/svg">
<path d="M18.6554 48C15.3719 48 12.7152 50.7 12.7152 54C12.7152 57.3 15.3719 60 18.6554 60C21.9389 60 24.6254 57.3 24.6254 54C24.6254 50.7 21.9389 48 18.6554 48ZM0.745361 3C0.745361 4.65 2.08861 6 3.73036 6H6.71537L17.4614 28.77L13.4316 36.09C11.2526 40.11 14.1182 45 18.6554 45H51.4904C53.1322 45 54.4754 43.65 54.4754 42C54.4754 40.35 53.1322 39 51.4904 39H18.6554L21.9389 33H44.1771C46.4159 33 48.386 31.77 49.4009 29.91L60.0872 10.44C61.1917 8.46 59.7589 6 57.4903 6H13.3122L11.3123 1.71C10.8347 0.66 9.76007 0 8.62577 0H3.73036C2.08861 0 0.745361 1.35 0.745361 3ZM48.5054 48C45.2219 48 42.5652 50.7 42.5652 54C42.5652 57.3 45.2219 60 48.5054 60C51.7889 60 54.4754 57.3 54.4754 54C54.4754 50.7 51.7889 48 48.5054 48Z" fill="black"/>
</svg>
